PathFileType  4	(X/Y/Z) C:\Users\antoi\Documents\MyRepositories\mobilecap\ResultsAnalysis
DataRate	CameraRate	NumFrames	NumMarkers	Units	OrigDataRate	OrigDataStartFrame	OrigNumFrames
100.0	100.0	4	51	mm	100.0	163	260
Frame#	Time	r_knee			r_shank_antsup			r_ankle			r_calc			r_5meta			r_toe			L_knee			L_shank_antsup			L_ankle			L_calc			L_5meta			L_toe			r_sh2			r_sh3			r_sh4			L_sh2			L_sh3			r_thigh1			r_thigh2			r_thigh3			r_thigh4			r_thigh5			L_thigh1			L_thigh2			L_thigh3			L_thigh4			r.ASIS			r.PSIS			L.ASIS			L.PSIS			C7			R_Shoulder			L_Shoulder			R_Sternum			L_Sternum			R_humerus			R_elbow_med			R_elbow_lat			R_forearm			R_wrist_radius			R_wrist_ulna			L_humerus			L_elbow_med			L_elbow_lat			L_forearm			L_wrist_radius			L_wrist_ulna			R_HJC			L_HJC			R_HJC_reg			L_HJC_reg			
		X1	Y1	Z1	X2	Y2	Z2	X3	Y3	Z3	X4	Y4	Z4	X5	Y5	Z5	X6	Y6	Z6	X7	Y7	Z7	X8	Y8	Z8	X9	Y9	Z9	X10	Y10	Z10	X11	Y11	Z11	X12	Y12	Z12	X13	Y13	Z13	X14	Y14	Z14	X15	Y15	Z15	X16	Y16	Z16	X17	Y17	Z17	X18	Y18	Z18	X19	Y19	Z19	X20	Y20	Z20	X21	Y21	Z21	X22	Y22	Z22	X23	Y23	Z23	X24	Y24	Z24	X25	Y25	Z25	X26	Y26	Z26	X27	Y27	Z27	X28	Y28	Z28	X29	Y29	Z29	X30	Y30	Z30	X31	Y31	Z31	X32	Y32	Z32	X33	Y33	Z33	X34	Y34	Z34	X35	Y35	Z35	X36	Y36	Z36	X37	Y37	Z37	X38	Y38	Z38	X39	Y39	Z39	X40	Y40	Z40	X41	Y41	Z41	X42	Y42	Z42	X43	Y43	Z43	X44	Y44	Z44	X45	Y45	Z45	X46	Y46	Z46	X47	Y47	Z47	X48	Y48	Z48	X49	Y49	Z49	X50	Y50	Z50	X51	Y51	Z51	

163	1.62000000	-106.62816	438.14295	-387.70986	-81.04161	336.09722	-391.62500	-298.35059	95.79494	-385.05645	-375.18266	61.64305	-428.69303	-190.10456	42.03069	-346.50418	-156.45136	69.28401	-402.52284	-73.43921	452.77011	-737.41426	-38.50946	356.48454	-721.52688	-245.34187	98.40171	-736.08172	-328.70489	53.76478	-686.80900	-157.04141	42.12505	-784.18945	-102.51445	64.03668	-732.30658	-143.59824	240.37182	-390.70072	-135.93748	370.97037	-352.80220	-203.05782	278.27836	-345.50436	-101.03757	403.91296	-767.27340	-159.22604	297.37564	-778.33355	-322.67664	607.19348	-379.12666	-223.12202	566.99788	-389.00943	-219.89313	503.74416	-359.98900	-366.48384	502.42830	-372.48402	-256.33650	462.99709	-378.90288	-256.41239	624.69348	-733.04172	-128.35747	575.08123	-712.56236	-289.56789	533.43260	-784.12610	-169.09291	481.63682	-754.30639	-337.31355	669.05911	-433.58220	-513.88693	745.77549	-535.81038	-308.00783	668.35148	-683.10803	-499.34869	748.59830	-631.47937	-216.76519	1127.73737	-535.47732	-163.40778	1052.86492	-373.24932	-137.25362	1052.62750	-675.20364	-144.74129	997.73300	-512.45256	-138.26652	1004.22591	-549.52631	-174.43251	918.22086	-321.39186	-310.37963	745.65984	-337.13453	-304.70228	759.62705	-270.53817	-227.75847	711.51727	-254.88286	-113.06767	604.07611	-293.90534	-142.02968	573.77152	-268.02754	-173.69175	925.28948	-752.21260	-324.68799	775.86195	-753.85851	-314.78272	802.57577	-828.42359	-258.82591	755.50922	-853.33116	-162.36900	613.86773	-872.17071	-208.43626	600.33704	-893.96056	-433.30222	602.87381	-470.57568	-408.05579	603.26645	-658.44768	-420.74065	607.06913	-483.78410	-395.83831	611.90727	-647.65494	
164	1.63000000	-104.02580	437.34171	-388.41889	-79.20530	335.34572	-391.12393	-297.78830	95.96353	-386.68549	-374.82397	62.27233	-429.59628	-190.06930	42.12820	-346.67428	-156.04334	69.10548	-402.80116	-73.06303	451.54406	-737.67308	-37.36141	355.88439	-722.96399	-245.16992	98.45949	-736.30608	-328.61018	53.85895	-686.72210	-157.05781	42.04459	-784.44442	-102.43872	63.91768	-732.38877	-142.49770	240.11673	-390.50650	-134.40954	370.98476	-353.14760	-202.40151	278.86241	-346.42519	-100.30937	403.53737	-767.68301	-158.76474	297.16677	-778.80003	-323.09002	604.46788	-380.39956	-222.83514	565.02452	-390.46178	-218.12300	502.31142	-360.61746	-364.66655	498.47855	-371.44507	-254.02711	460.69224	-378.80787	-257.95885	622.16158	-732.90180	-128.87132	574.22951	-712.48153	-288.95218	531.41019	-785.48036	-167.56331	481.28574	-756.01909	-335.42888	659.71020	-433.28861	-511.67599	740.08235	-536.70822	-306.35404	661.60790	-684.86672	-497.34223	743.69857	-632.07233	-211.14167	1117.58641	-535.22032	-156.04602	1042.38243	-374.00910	-132.22181	1041.15498	-674.80036	-140.24718	986.46445	-512.19086	-133.96282	993.52779	-549.40733	-161.35176	906.66991	-325.79239	-288.86919	728.04051	-342.64165	-281.06323	739.63782	-276.04834	-200.86588	696.14658	-264.62962	-81.10916	597.84309	-311.75654	-106.91305	564.96374	-285.66688	-161.65673	910.53919	-748.16374	-301.54870	750.85232	-748.86804	-292.09462	777.18993	-823.72325	-231.34803	735.08680	-846.03473	-120.90253	603.42821	-858.41956	-164.58578	585.35265	-881.65759	-432.71589	595.41006	-472.41389	-407.26917	597.42906	-660.25082	-420.07606	598.97223	-484.36188	-395.25204	605.23854	-649.54108	
165	1.64000000	-101.85227	436.11843	-389.33619	-77.51519	334.34295	-391.27269	-297.43071	96.07692	-387.93500	-374.59225	62.56874	-430.36076	-190.06923	42.28719	-346.82770	-155.79625	68.97564	-403.08798	-73.07393	449.99168	-738.25282	-37.01468	354.83645	-724.61298	-245.16418	98.42130	-736.65273	-328.57878	53.91756	-686.76981	-157.08552	41.90850	-784.73453	-102.46354	63.79912	-732.53578	-141.39017	239.53039	-390.92978	-132.63604	370.43704	-353.82179	-201.26457	279.02728	-347.23271	-100.63920	402.90200	-768.33263	-159.16871	296.44539	-779.14292	-322.81108	600.82189	-381.32729	-222.63924	562.13933	-391.07129	-216.46660	499.88204	-361.52944	-363.04502	494.80116	-370.85710	-252.19158	457.89276	-378.90919	-259.41065	619.49652	-733.90213	-129.03355	572.57135	-713.36264	-288.80307	528.74358	-786.10972	-166.86275	480.33976	-757.93886	-333.52043	650.94249	-434.15247	-509.74509	735.10738	-537.42960	-305.77331	655.37704	-686.73392	-495.68356	739.50902	-632.26992	-206.01708	1108.44382	-535.51704	-149.02532	1032.79511	-375.01493	-127.58687	1030.94920	-674.45132	-136.26862	976.32980	-512.07239	-130.30468	983.59823	-549.12866	-148.41616	896.87964	-329.76351	-266.50103	711.98809	-347.69140	-256.50058	721.68917	-281.44554	-173.55719	683.38748	-273.68035	-49.41982	594.67575	-328.29529	-72.00459	559.58859	-302.05275	-149.68088	897.97665	-744.31837	-276.94826	727.63964	-743.26015	-267.47965	754.17811	-818.98886	-202.47350	717.45186	-838.48919	-79.86310	596.94603	-844.43119	-120.64859	574.65199	-869.05809	-432.29497	588.61810	-474.36231	-407.39301	592.25185	-662.24604	-419.70374	591.78656	-485.86455	-395.12920	599.47775	-651.60819	
166	1.65000000	-100.05296	434.20194	-390.46484	-75.98453	332.88010	-392.51690	-297.35924	96.18650	-388.37085	-374.55330	62.53311	-430.68412	-190.09924	42.37812	-346.89936	-155.77967	68.92419	-403.25082	-73.10901	448.86464	-739.84200	-37.06619	353.76077	-726.47506	-245.27011	98.27570	-737.05893	-328.62864	53.84975	-686.90094	-157.14104	41.71284	-784.98813	-102.56959	63.64514	-732.81422	-140.38883	238.47642	-391.96261	-130.78161	369.17102	-355.09034	-200.04532	278.31044	-348.00095	-101.40422	402.15259	-769.62208	-159.77710	295.50849	-779.84962	-321.34463	596.69633	-382.52324	-221.42820	558.76271	-392.19109	-214.84645	496.73864	-362.68522	-361.51416	491.41999	-370.88490	-250.54299	454.67019	-379.30627	-260.03804	616.86530	-735.21479	-128.95631	570.63471	-715.01961	-289.03384	525.87212	-786.68371	-166.90612	478.30280	-759.27694	-331.62106	643.59698	-436.28547	-508.30692	730.64153	-537.68560	-305.56705	650.01988	-688.35358	-494.28171	735.77738	-632.07252	-202.24637	1099.84026	-535.97512	-142.47674	1024.06627	-376.13989	-123.34978	1022.14269	-673.87928	-132.95181	967.63802	-512.51310	-127.27066	974.32064	-548.98253	-135.62977	888.84243	-333.11983	-243.06236	697.40798	-352.26276	-230.83063	706.21995	-286.63657	-145.75438	673.22198	-282.22159	-18.02482	594.33174	-343.48043	-37.38323	557.28524	-317.19866	-137.54693	888.24131	-741.16036	-250.20960	708.17721	-737.60125	-241.03418	734.07403	-813.95636	-172.42517	703.06572	-830.48247	-39.57925	594.17679	-830.07516	-77.16917	568.23884	-856.11936	-431.56569	582.71558	-476.16542	-407.74344	587.81543	-664.15464	-419.15692	585.85545	-488.49495	-394.60167	594.84344	-653.74307	
